<mxfile host="app.diagrams.net" modified="2023-11-21T22:10:13.956Z" agent="Mozilla/5.0 (Windows NT 10.0; Win64; x64) AppleWebKit/537.36 (KHTML, like Gecko) Chrome/119.0.0.0 Safari/537.36" etag="djygrd9yvOQKzdxAvWlU" version="22.1.3" type="github">
  <diagram name="Página-1" id="4BS_kcSu9RCZBbaW8UEV">
    <mxGraphModel dx="1434" dy="750" grid="1" gridSize="10" guides="1" tooltips="1" connect="1" arrows="1" fold="1" page="1" pageScale="1" pageWidth="827" pageHeight="1169" math="0" shadow="0">
      <root>
        <mxCell id="0" />
        <mxCell id="1" parent="0" />
        <mxCell id="MyS0ghMgtrrdCx2Y_S8_-52" style="edgeStyle=orthogonalEdgeStyle;rounded=0;orthogonalLoop=1;jettySize=auto;html=1;exitX=0;exitY=0.25;exitDx=0;exitDy=0;entryX=0;entryY=0;entryDx=120;entryDy=15;entryPerimeter=0;" parent="1" source="MyS0ghMgtrrdCx2Y_S8_-16" target="MyS0ghMgtrrdCx2Y_S8_-48" edge="1">
          <mxGeometry relative="1" as="geometry" />
        </mxCell>
        <mxCell id="MyS0ghMgtrrdCx2Y_S8_-1" value="Aparte de las direcciones de los clientes, me interesa grabar nombre y apellidos del cliente y su NIF en caso de que pida facturas (no es obligatorio).&lt;br&gt;Cuando un cliente quiere una serie de productos de la tienda web puede buscarlo por categorías o directamente poniendo su nombre.&lt;br&gt;Cada producto tiene un stock concreto, no podemos comprar mas productos de los que haya en stock, algunos de los productos tienen un máximo de compra por cliente y día.&lt;br&gt;Los precios de los productos varían contínuamente.&lt;br&gt;No todos los productos tienes un 21% de IVA, algunos llevan el 10% aunque podría varias e incluso aplicarse otros tipos de IVA (depende de las decisiones del gobierno).&lt;br&gt;Para seleccionar de manera mas sencilla un producto, genero un código único que puede usar el cliente para futuras compras.&lt;br&gt;Para algunos de los productos aparecen unidades con &quot;descuentos especiales&quot; que se pueden comprar con un descuento adicional pero que tienen alguna pequeña tara, para esas unidades habrá un stock concreto.&lt;br&gt;En un mismo pedido podemos mezclar todo tipos de productos e incluso podemos tener productos con descuento y sin él.&lt;br&gt;Cada pedido tiene un número único, podremos pedir una factura si así lo necesitáramos pero sólo se emite si la solicitas (eso es poco legal aquí en España pero Pámazon es grande).&lt;br&gt;En el pedido/factura se detallarán los gastos de envío, estos gastos llevarán el 21% de IVA (salvo que cambie posteriormente)&lt;br&gt;NOTA: Para no complicar mucho más el modelo obviamente detalles muy importantes como el seguimiento del envío etc etc" style="text;html=1;strokeColor=none;fillColor=none;align=left;verticalAlign=middle;whiteSpace=wrap;rounded=0;fontFamily=Verdana;fontSize=13;" parent="1" vertex="1">
          <mxGeometry x="34" y="40" width="760" height="330" as="geometry" />
        </mxCell>
        <mxCell id="MyS0ghMgtrrdCx2Y_S8_-21" style="edgeStyle=orthogonalEdgeStyle;rounded=0;orthogonalLoop=1;jettySize=auto;html=1;exitX=1;exitY=0.5;exitDx=0;exitDy=0;entryX=0;entryY=0.5;entryDx=0;entryDy=0;" parent="1" source="MyS0ghMgtrrdCx2Y_S8_-3" target="MyS0ghMgtrrdCx2Y_S8_-20" edge="1">
          <mxGeometry relative="1" as="geometry" />
        </mxCell>
        <mxCell id="MyS0ghMgtrrdCx2Y_S8_-3" value="Cliente" style="rounded=0;whiteSpace=wrap;html=1;fillColor=#97D077;" parent="1" vertex="1">
          <mxGeometry x="150" y="490" width="120" height="60" as="geometry" />
        </mxCell>
        <mxCell id="MyS0ghMgtrrdCx2Y_S8_-4" style="rounded=0;orthogonalLoop=1;jettySize=auto;html=1;exitX=1;exitY=0.5;exitDx=0;exitDy=0;entryX=0;entryY=0.5;entryDx=0;entryDy=0;endArrow=none;endFill=0;strokeColor=default;" parent="1" source="MyS0ghMgtrrdCx2Y_S8_-5" target="MyS0ghMgtrrdCx2Y_S8_-3" edge="1">
          <mxGeometry relative="1" as="geometry" />
        </mxCell>
        <mxCell id="MyS0ghMgtrrdCx2Y_S8_-5" value="ID" style="ellipse;whiteSpace=wrap;html=1;strokeWidth=2;fillColor=#FFCE9F;" parent="1" vertex="1">
          <mxGeometry x="30" y="490" width="90" height="60" as="geometry" />
        </mxCell>
        <mxCell id="MyS0ghMgtrrdCx2Y_S8_-6" style="rounded=0;orthogonalLoop=1;jettySize=auto;html=1;exitX=1;exitY=0;exitDx=0;exitDy=0;entryX=0;entryY=0.5;entryDx=0;entryDy=0;endArrow=none;endFill=0;" parent="1" source="MyS0ghMgtrrdCx2Y_S8_-7" target="MyS0ghMgtrrdCx2Y_S8_-3" edge="1">
          <mxGeometry relative="1" as="geometry" />
        </mxCell>
        <mxCell id="MyS0ghMgtrrdCx2Y_S8_-7" value="apellido" style="ellipse;whiteSpace=wrap;html=1;strokeWidth=1;fillColor=#ffe6cc;strokeColor=#d79b00;" parent="1" vertex="1">
          <mxGeometry x="30" y="560" width="90" height="60" as="geometry" />
        </mxCell>
        <mxCell id="MyS0ghMgtrrdCx2Y_S8_-12" style="rounded=0;orthogonalLoop=1;jettySize=auto;html=1;exitX=1;exitY=1;exitDx=0;exitDy=0;entryX=0;entryY=0.5;entryDx=0;entryDy=0;endArrow=none;endFill=0;" parent="1" source="MyS0ghMgtrrdCx2Y_S8_-9" target="MyS0ghMgtrrdCx2Y_S8_-3" edge="1">
          <mxGeometry relative="1" as="geometry" />
        </mxCell>
        <mxCell id="MyS0ghMgtrrdCx2Y_S8_-9" value="nombre" style="ellipse;whiteSpace=wrap;html=1;strokeWidth=1;fillColor=#ffe6cc;strokeColor=#d79b00;" parent="1" vertex="1">
          <mxGeometry x="30" y="420" width="90" height="60" as="geometry" />
        </mxCell>
        <mxCell id="MyS0ghMgtrrdCx2Y_S8_-14" style="rounded=0;orthogonalLoop=1;jettySize=auto;html=1;exitX=0.5;exitY=1;exitDx=0;exitDy=0;entryX=0.5;entryY=0;entryDx=0;entryDy=0;endArrow=none;endFill=0;" parent="1" source="MyS0ghMgtrrdCx2Y_S8_-13" target="MyS0ghMgtrrdCx2Y_S8_-3" edge="1">
          <mxGeometry relative="1" as="geometry" />
        </mxCell>
        <mxCell id="MyS0ghMgtrrdCx2Y_S8_-13" value="NIF" style="ellipse;whiteSpace=wrap;html=1;strokeWidth=1;fillColor=#ffe6cc;strokeColor=#d79b00;" parent="1" vertex="1">
          <mxGeometry x="165" y="410" width="90" height="60" as="geometry" />
        </mxCell>
        <mxCell id="MyS0ghMgtrrdCx2Y_S8_-15" value="Factura" style="rounded=0;whiteSpace=wrap;html=1;fillColor=#97D077;" parent="1" vertex="1">
          <mxGeometry x="150" y="595" width="120" height="60" as="geometry" />
        </mxCell>
        <mxCell id="MyS0ghMgtrrdCx2Y_S8_-32" style="edgeStyle=orthogonalEdgeStyle;rounded=0;orthogonalLoop=1;jettySize=auto;html=1;exitX=0.5;exitY=1;exitDx=0;exitDy=0;entryX=0.5;entryY=0;entryDx=0;entryDy=0;" parent="1" source="MyS0ghMgtrrdCx2Y_S8_-16" target="MyS0ghMgtrrdCx2Y_S8_-31" edge="1">
          <mxGeometry relative="1" as="geometry" />
        </mxCell>
        <mxCell id="MyS0ghMgtrrdCx2Y_S8_-65" style="edgeStyle=orthogonalEdgeStyle;rounded=0;orthogonalLoop=1;jettySize=auto;html=1;exitX=0.5;exitY=0;exitDx=0;exitDy=0;entryX=0.5;entryY=1;entryDx=0;entryDy=0;" parent="1" source="MyS0ghMgtrrdCx2Y_S8_-16" target="MyS0ghMgtrrdCx2Y_S8_-26" edge="1">
          <mxGeometry relative="1" as="geometry">
            <Array as="points">
              <mxPoint x="600" y="690" />
              <mxPoint x="640" y="690" />
            </Array>
          </mxGeometry>
        </mxCell>
        <mxCell id="MyS0ghMgtrrdCx2Y_S8_-16" value="Producto" style="rounded=0;whiteSpace=wrap;html=1;fillColor=#97D077;" parent="1" vertex="1">
          <mxGeometry x="540" y="790" width="120" height="60" as="geometry" />
        </mxCell>
        <mxCell id="MyS0ghMgtrrdCx2Y_S8_-35" style="edgeStyle=orthogonalEdgeStyle;rounded=0;orthogonalLoop=1;jettySize=auto;html=1;exitX=0;exitY=0.5;exitDx=0;exitDy=0;entryX=1;entryY=0.5;entryDx=0;entryDy=0;" parent="1" source="MyS0ghMgtrrdCx2Y_S8_-17" target="MyS0ghMgtrrdCx2Y_S8_-34" edge="1">
          <mxGeometry relative="1" as="geometry" />
        </mxCell>
        <mxCell id="MyS0ghMgtrrdCx2Y_S8_-17" value="Categorias" style="rounded=0;whiteSpace=wrap;html=1;fillColor=#97D077;" parent="1" vertex="1">
          <mxGeometry x="385" y="990" width="120" height="60" as="geometry" />
        </mxCell>
        <mxCell id="MyS0ghMgtrrdCx2Y_S8_-18" value="Tipos de IVA" style="rounded=0;whiteSpace=wrap;html=1;fillColor=#97D077;" parent="1" vertex="1">
          <mxGeometry x="65" y="990" width="120" height="60" as="geometry" />
        </mxCell>
        <mxCell id="MyS0ghMgtrrdCx2Y_S8_-37" style="edgeStyle=orthogonalEdgeStyle;rounded=0;orthogonalLoop=1;jettySize=auto;html=1;exitX=0.5;exitY=1;exitDx=0;exitDy=0;entryX=1;entryY=0.5;entryDx=0;entryDy=0;" parent="1" source="MyS0ghMgtrrdCx2Y_S8_-19" target="MyS0ghMgtrrdCx2Y_S8_-23" edge="1">
          <mxGeometry relative="1" as="geometry" />
        </mxCell>
        <mxCell id="MyS0ghMgtrrdCx2Y_S8_-19" value="Pedido" style="rounded=0;whiteSpace=wrap;html=1;fillColor=#97D077;" parent="1" vertex="1">
          <mxGeometry x="470" y="490" width="120" height="60" as="geometry" />
        </mxCell>
        <mxCell id="MyS0ghMgtrrdCx2Y_S8_-22" style="edgeStyle=orthogonalEdgeStyle;rounded=0;orthogonalLoop=1;jettySize=auto;html=1;exitX=1;exitY=0.5;exitDx=0;exitDy=0;entryX=0;entryY=0.5;entryDx=0;entryDy=0;" parent="1" source="MyS0ghMgtrrdCx2Y_S8_-20" target="MyS0ghMgtrrdCx2Y_S8_-19" edge="1">
          <mxGeometry relative="1" as="geometry" />
        </mxCell>
        <mxCell id="MyS0ghMgtrrdCx2Y_S8_-20" value="hace" style="rhombus;whiteSpace=wrap;html=1;" parent="1" vertex="1">
          <mxGeometry x="330" y="480" width="80" height="80" as="geometry" />
        </mxCell>
        <mxCell id="MyS0ghMgtrrdCx2Y_S8_-25" style="edgeStyle=orthogonalEdgeStyle;rounded=0;orthogonalLoop=1;jettySize=auto;html=1;exitX=0;exitY=0.5;exitDx=0;exitDy=0;entryX=1;entryY=0.5;entryDx=0;entryDy=0;" parent="1" source="MyS0ghMgtrrdCx2Y_S8_-23" target="MyS0ghMgtrrdCx2Y_S8_-15" edge="1">
          <mxGeometry relative="1" as="geometry" />
        </mxCell>
        <mxCell id="MyS0ghMgtrrdCx2Y_S8_-23" value="tiene" style="rhombus;whiteSpace=wrap;html=1;" parent="1" vertex="1">
          <mxGeometry x="330" y="585" width="80" height="80" as="geometry" />
        </mxCell>
        <mxCell id="MyS0ghMgtrrdCx2Y_S8_-29" style="edgeStyle=orthogonalEdgeStyle;rounded=0;orthogonalLoop=1;jettySize=auto;html=1;exitX=0.5;exitY=0;exitDx=0;exitDy=0;entryX=1;entryY=0.5;entryDx=0;entryDy=0;" parent="1" source="MyS0ghMgtrrdCx2Y_S8_-26" target="MyS0ghMgtrrdCx2Y_S8_-19" edge="1">
          <mxGeometry relative="1" as="geometry" />
        </mxCell>
        <mxCell id="MyS0ghMgtrrdCx2Y_S8_-85" style="rounded=0;orthogonalLoop=1;jettySize=auto;html=1;exitX=1;exitY=0.5;exitDx=0;exitDy=0;entryX=0;entryY=0.5;entryDx=0;entryDy=0;endArrow=none;endFill=0;" parent="1" source="MyS0ghMgtrrdCx2Y_S8_-26" target="MyS0ghMgtrrdCx2Y_S8_-81" edge="1">
          <mxGeometry relative="1" as="geometry" />
        </mxCell>
        <mxCell id="MyS0ghMgtrrdCx2Y_S8_-26" value="compone" style="rhombus;whiteSpace=wrap;html=1;" parent="1" vertex="1">
          <mxGeometry x="600" y="540" width="80" height="80" as="geometry" />
        </mxCell>
        <mxCell id="MyS0ghMgtrrdCx2Y_S8_-33" style="edgeStyle=orthogonalEdgeStyle;rounded=0;orthogonalLoop=1;jettySize=auto;html=1;exitX=0;exitY=0.5;exitDx=0;exitDy=0;entryX=1;entryY=0.5;entryDx=0;entryDy=0;" parent="1" source="MyS0ghMgtrrdCx2Y_S8_-31" target="MyS0ghMgtrrdCx2Y_S8_-17" edge="1">
          <mxGeometry relative="1" as="geometry" />
        </mxCell>
        <mxCell id="MyS0ghMgtrrdCx2Y_S8_-31" value="E" style="rhombus;whiteSpace=wrap;html=1;" parent="1" vertex="1">
          <mxGeometry x="560" y="980" width="80" height="80" as="geometry" />
        </mxCell>
        <mxCell id="MyS0ghMgtrrdCx2Y_S8_-36" style="edgeStyle=orthogonalEdgeStyle;rounded=0;orthogonalLoop=1;jettySize=auto;html=1;exitX=0;exitY=0.5;exitDx=0;exitDy=0;entryX=1;entryY=0.5;entryDx=0;entryDy=0;" parent="1" source="MyS0ghMgtrrdCx2Y_S8_-34" target="MyS0ghMgtrrdCx2Y_S8_-18" edge="1">
          <mxGeometry relative="1" as="geometry" />
        </mxCell>
        <mxCell id="MyS0ghMgtrrdCx2Y_S8_-34" value="E" style="rhombus;whiteSpace=wrap;html=1;" parent="1" vertex="1">
          <mxGeometry x="245" y="980" width="80" height="80" as="geometry" />
        </mxCell>
        <mxCell id="MyS0ghMgtrrdCx2Y_S8_-73" style="rounded=0;orthogonalLoop=1;jettySize=auto;html=1;exitX=0.5;exitY=0;exitDx=0;exitDy=0;entryX=0.5;entryY=1;entryDx=0;entryDy=0;endArrow=none;endFill=0;" parent="1" source="MyS0ghMgtrrdCx2Y_S8_-38" target="MyS0ghMgtrrdCx2Y_S8_-17" edge="1">
          <mxGeometry relative="1" as="geometry" />
        </mxCell>
        <mxCell id="MyS0ghMgtrrdCx2Y_S8_-38" value="ID" style="ellipse;whiteSpace=wrap;html=1;strokeWidth=2;fillColor=#FFCE9F;" parent="1" vertex="1">
          <mxGeometry x="350" y="1070" width="90" height="60" as="geometry" />
        </mxCell>
        <mxCell id="MyS0ghMgtrrdCx2Y_S8_-70" style="rounded=0;orthogonalLoop=1;jettySize=auto;html=1;exitX=0;exitY=0.5;exitDx=0;exitDy=0;entryX=1;entryY=0.5;entryDx=0;entryDy=0;endArrow=none;endFill=0;" parent="1" source="MyS0ghMgtrrdCx2Y_S8_-39" target="MyS0ghMgtrrdCx2Y_S8_-16" edge="1">
          <mxGeometry relative="1" as="geometry" />
        </mxCell>
        <mxCell id="MyS0ghMgtrrdCx2Y_S8_-39" value="stock" style="ellipse;whiteSpace=wrap;html=1;strokeWidth=1;fillColor=#ffe6cc;strokeColor=#d79b00;" parent="1" vertex="1">
          <mxGeometry x="710" y="827.5" width="90" height="60" as="geometry" />
        </mxCell>
        <mxCell id="MyS0ghMgtrrdCx2Y_S8_-74" style="rounded=0;orthogonalLoop=1;jettySize=auto;html=1;exitX=0.5;exitY=0;exitDx=0;exitDy=0;entryX=0.5;entryY=1;entryDx=0;entryDy=0;endArrow=none;endFill=0;" parent="1" source="MyS0ghMgtrrdCx2Y_S8_-40" target="MyS0ghMgtrrdCx2Y_S8_-17" edge="1">
          <mxGeometry relative="1" as="geometry" />
        </mxCell>
        <mxCell id="MyS0ghMgtrrdCx2Y_S8_-40" value="nombre" style="ellipse;whiteSpace=wrap;html=1;strokeWidth=1;fillColor=#ffe6cc;strokeColor=#d79b00;" parent="1" vertex="1">
          <mxGeometry x="450" y="1070" width="90" height="60" as="geometry" />
        </mxCell>
        <mxCell id="MyS0ghMgtrrdCx2Y_S8_-67" style="rounded=0;orthogonalLoop=1;jettySize=auto;html=1;exitX=0.5;exitY=1;exitDx=0;exitDy=0;entryX=0.25;entryY=0;entryDx=0;entryDy=0;endArrow=none;endFill=0;" parent="1" source="MyS0ghMgtrrdCx2Y_S8_-41" target="MyS0ghMgtrrdCx2Y_S8_-16" edge="1">
          <mxGeometry relative="1" as="geometry" />
        </mxCell>
        <mxCell id="MyS0ghMgtrrdCx2Y_S8_-41" value="CODIGO" style="ellipse;whiteSpace=wrap;html=1;strokeWidth=3;fillColor=#FFCE9F;dashed=1;dashPattern=1 1;" parent="1" vertex="1">
          <mxGeometry x="500" y="710" width="90" height="60" as="geometry" />
        </mxCell>
        <mxCell id="MyS0ghMgtrrdCx2Y_S8_-72" style="rounded=0;orthogonalLoop=1;jettySize=auto;html=1;exitX=0.5;exitY=0;exitDx=0;exitDy=0;entryX=0.25;entryY=1;entryDx=0;entryDy=0;endArrow=none;endFill=0;" parent="1" source="MyS0ghMgtrrdCx2Y_S8_-42" target="MyS0ghMgtrrdCx2Y_S8_-16" edge="1">
          <mxGeometry relative="1" as="geometry" />
        </mxCell>
        <mxCell id="MyS0ghMgtrrdCx2Y_S8_-42" value="precio actual" style="ellipse;whiteSpace=wrap;html=1;strokeWidth=1;fillColor=#ffe6cc;strokeColor=#d79b00;" parent="1" vertex="1">
          <mxGeometry x="500" y="870" width="90" height="60" as="geometry" />
        </mxCell>
        <mxCell id="MyS0ghMgtrrdCx2Y_S8_-47" style="edgeStyle=orthogonalEdgeStyle;rounded=0;orthogonalLoop=1;jettySize=auto;html=1;exitX=1;exitY=0.5;exitDx=0;exitDy=0;entryX=0;entryY=0.5;entryDx=0;entryDy=0;startArrow=classic;startFill=1;endArrow=none;endFill=0;" parent="1" source="MyS0ghMgtrrdCx2Y_S8_-45" target="MyS0ghMgtrrdCx2Y_S8_-16" edge="1">
          <mxGeometry relative="1" as="geometry" />
        </mxCell>
        <mxCell id="MyS0ghMgtrrdCx2Y_S8_-45" value="tiene" style="rhombus;whiteSpace=wrap;html=1;" parent="1" vertex="1">
          <mxGeometry x="370" y="780" width="80" height="80" as="geometry" />
        </mxCell>
        <mxCell id="MyS0ghMgtrrdCx2Y_S8_-49" style="edgeStyle=orthogonalEdgeStyle;rounded=0;orthogonalLoop=1;jettySize=auto;html=1;exitX=1;exitY=0.5;exitDx=0;exitDy=0;exitPerimeter=0;entryX=0;entryY=0.5;entryDx=0;entryDy=0;endArrow=none;endFill=0;startArrow=classic;startFill=1;" parent="1" source="MyS0ghMgtrrdCx2Y_S8_-48" target="MyS0ghMgtrrdCx2Y_S8_-45" edge="1">
          <mxGeometry relative="1" as="geometry" />
        </mxCell>
        <mxCell id="MyS0ghMgtrrdCx2Y_S8_-51" value="" style="group;fillColor=#97D077;" parent="1" vertex="1" connectable="0">
          <mxGeometry x="150" y="790" width="120" height="60" as="geometry" />
        </mxCell>
        <mxCell id="MyS0ghMgtrrdCx2Y_S8_-48" value="" style="verticalLabelPosition=bottom;verticalAlign=top;html=1;shape=mxgraph.basic.frame;dx=10;whiteSpace=wrap;fillColor=#B9E0A5;" parent="MyS0ghMgtrrdCx2Y_S8_-51" vertex="1">
          <mxGeometry width="120" height="60" as="geometry" />
        </mxCell>
        <mxCell id="MyS0ghMgtrrdCx2Y_S8_-50" value="Tarado" style="text;html=1;align=center;verticalAlign=middle;resizable=0;points=[];autosize=1;strokeColor=none;fillColor=none;" parent="MyS0ghMgtrrdCx2Y_S8_-51" vertex="1">
          <mxGeometry x="30" y="15" width="60" height="30" as="geometry" />
        </mxCell>
        <mxCell id="MyS0ghMgtrrdCx2Y_S8_-53" value="ID" style="ellipse;whiteSpace=wrap;html=1;strokeWidth=2;fillColor=#FFCE9F;" parent="1" vertex="1">
          <mxGeometry x="165" y="710" width="90" height="60" as="geometry" />
        </mxCell>
        <mxCell id="MyS0ghMgtrrdCx2Y_S8_-54" value="stock" style="ellipse;whiteSpace=wrap;html=1;strokeWidth=1;fillColor=#ffe6cc;strokeColor=#d79b00;" parent="1" vertex="1">
          <mxGeometry x="110" y="870" width="90" height="60" as="geometry" />
        </mxCell>
        <mxCell id="MyS0ghMgtrrdCx2Y_S8_-55" value="descuento" style="ellipse;whiteSpace=wrap;html=1;strokeWidth=1;fillColor=#ffe6cc;strokeColor=#d79b00;" parent="1" vertex="1">
          <mxGeometry x="30" y="790" width="90" height="60" as="geometry" />
        </mxCell>
        <mxCell id="MyS0ghMgtrrdCx2Y_S8_-57" style="rounded=0;orthogonalLoop=1;jettySize=auto;html=1;exitX=0.5;exitY=1;exitDx=0;exitDy=0;entryX=0.5;entryY=0;entryDx=0;entryDy=0;endArrow=none;endFill=0;" parent="1" source="MyS0ghMgtrrdCx2Y_S8_-56" target="MyS0ghMgtrrdCx2Y_S8_-19" edge="1">
          <mxGeometry relative="1" as="geometry" />
        </mxCell>
        <mxCell id="MyS0ghMgtrrdCx2Y_S8_-56" value="ID" style="ellipse;whiteSpace=wrap;html=1;strokeWidth=2;fillColor=#FFCE9F;" parent="1" vertex="1">
          <mxGeometry x="440" y="410" width="90" height="60" as="geometry" />
        </mxCell>
        <mxCell id="MyS0ghMgtrrdCx2Y_S8_-66" style="rounded=0;orthogonalLoop=1;jettySize=auto;html=1;exitX=0.5;exitY=1;exitDx=0;exitDy=0;entryX=0.5;entryY=0;entryDx=0;entryDy=0;endArrow=none;endFill=0;" parent="1" source="MyS0ghMgtrrdCx2Y_S8_-59" target="MyS0ghMgtrrdCx2Y_S8_-19" edge="1">
          <mxGeometry relative="1" as="geometry" />
        </mxCell>
        <mxCell id="MyS0ghMgtrrdCx2Y_S8_-59" value="gastos de envio" style="ellipse;whiteSpace=wrap;html=1;strokeWidth=1;fillColor=#ffe6cc;strokeColor=#d79b00;" parent="1" vertex="1">
          <mxGeometry x="540" y="410" width="90" height="60" as="geometry" />
        </mxCell>
        <mxCell id="MyS0ghMgtrrdCx2Y_S8_-76" style="rounded=0;orthogonalLoop=1;jettySize=auto;html=1;exitX=0.5;exitY=0;exitDx=0;exitDy=0;entryX=0.5;entryY=1;entryDx=0;entryDy=0;endArrow=none;endFill=0;" parent="1" source="MyS0ghMgtrrdCx2Y_S8_-60" target="MyS0ghMgtrrdCx2Y_S8_-18" edge="1">
          <mxGeometry relative="1" as="geometry" />
        </mxCell>
        <mxCell id="MyS0ghMgtrrdCx2Y_S8_-60" value="ID" style="ellipse;whiteSpace=wrap;html=1;strokeWidth=2;fillColor=#FFCE9F;" parent="1" vertex="1">
          <mxGeometry x="30" y="1070" width="90" height="60" as="geometry" />
        </mxCell>
        <mxCell id="MyS0ghMgtrrdCx2Y_S8_-75" style="rounded=0;orthogonalLoop=1;jettySize=auto;html=1;exitX=0.5;exitY=0;exitDx=0;exitDy=0;entryX=0.5;entryY=1;entryDx=0;entryDy=0;endArrow=none;endFill=0;" parent="1" source="MyS0ghMgtrrdCx2Y_S8_-61" target="MyS0ghMgtrrdCx2Y_S8_-18" edge="1">
          <mxGeometry relative="1" as="geometry" />
        </mxCell>
        <mxCell id="MyS0ghMgtrrdCx2Y_S8_-61" value="porcentaje" style="ellipse;whiteSpace=wrap;html=1;strokeWidth=1;fillColor=#ffe6cc;strokeColor=#d79b00;" parent="1" vertex="1">
          <mxGeometry x="130" y="1070" width="90" height="60" as="geometry" />
        </mxCell>
        <mxCell id="MyS0ghMgtrrdCx2Y_S8_-69" style="rounded=0;orthogonalLoop=1;jettySize=auto;html=1;exitX=0;exitY=0.5;exitDx=0;exitDy=0;entryX=1;entryY=0.5;entryDx=0;entryDy=0;endArrow=none;endFill=0;" parent="1" source="MyS0ghMgtrrdCx2Y_S8_-62" target="MyS0ghMgtrrdCx2Y_S8_-16" edge="1">
          <mxGeometry relative="1" as="geometry" />
        </mxCell>
        <mxCell id="MyS0ghMgtrrdCx2Y_S8_-62" value="nombre" style="ellipse;whiteSpace=wrap;html=1;strokeWidth=1;fillColor=#ffe6cc;strokeColor=#d79b00;" parent="1" vertex="1">
          <mxGeometry x="710" y="752.5" width="90" height="60" as="geometry" />
        </mxCell>
        <mxCell id="MyS0ghMgtrrdCx2Y_S8_-71" style="rounded=0;orthogonalLoop=1;jettySize=auto;html=1;exitX=0.5;exitY=0;exitDx=0;exitDy=0;entryX=0.75;entryY=1;entryDx=0;entryDy=0;endArrow=none;endFill=0;" parent="1" source="MyS0ghMgtrrdCx2Y_S8_-63" target="MyS0ghMgtrrdCx2Y_S8_-16" edge="1">
          <mxGeometry relative="1" as="geometry" />
        </mxCell>
        <mxCell id="MyS0ghMgtrrdCx2Y_S8_-63" value="cantidad maxima por pedido" style="ellipse;whiteSpace=wrap;html=1;strokeWidth=1;fillColor=#ffe6cc;strokeColor=#d79b00;" parent="1" vertex="1">
          <mxGeometry x="610" y="870" width="90" height="60" as="geometry" />
        </mxCell>
        <mxCell id="MyS0ghMgtrrdCx2Y_S8_-68" style="rounded=0;orthogonalLoop=1;jettySize=auto;html=1;exitX=0.5;exitY=1;exitDx=0;exitDy=0;entryX=0.75;entryY=0;entryDx=0;entryDy=0;endArrow=none;endFill=0;" parent="1" source="MyS0ghMgtrrdCx2Y_S8_-64" target="MyS0ghMgtrrdCx2Y_S8_-16" edge="1">
          <mxGeometry relative="1" as="geometry" />
        </mxCell>
        <mxCell id="MyS0ghMgtrrdCx2Y_S8_-64" value="ID" style="ellipse;whiteSpace=wrap;html=1;strokeWidth=2;fillColor=#FFCE9F;" parent="1" vertex="1">
          <mxGeometry x="610" y="710" width="90" height="60" as="geometry" />
        </mxCell>
        <mxCell id="MyS0ghMgtrrdCx2Y_S8_-77" style="rounded=0;orthogonalLoop=1;jettySize=auto;html=1;exitX=0.5;exitY=0;exitDx=0;exitDy=0;entryX=0.5;entryY=1;entryDx=0;entryDy=0;entryPerimeter=0;endArrow=none;endFill=0;" parent="1" source="MyS0ghMgtrrdCx2Y_S8_-54" target="MyS0ghMgtrrdCx2Y_S8_-48" edge="1">
          <mxGeometry relative="1" as="geometry" />
        </mxCell>
        <mxCell id="MyS0ghMgtrrdCx2Y_S8_-78" style="edgeStyle=orthogonalEdgeStyle;rounded=0;orthogonalLoop=1;jettySize=auto;html=1;exitX=1;exitY=0.5;exitDx=0;exitDy=0;entryX=0;entryY=0.5;entryDx=0;entryDy=0;entryPerimeter=0;endArrow=none;endFill=0;" parent="1" source="MyS0ghMgtrrdCx2Y_S8_-55" target="MyS0ghMgtrrdCx2Y_S8_-48" edge="1">
          <mxGeometry relative="1" as="geometry" />
        </mxCell>
        <mxCell id="MyS0ghMgtrrdCx2Y_S8_-79" style="edgeStyle=orthogonalEdgeStyle;rounded=0;orthogonalLoop=1;jettySize=auto;html=1;exitX=0.5;exitY=1;exitDx=0;exitDy=0;entryX=0.5;entryY=0;entryDx=0;entryDy=0;entryPerimeter=0;endArrow=none;endFill=0;" parent="1" source="MyS0ghMgtrrdCx2Y_S8_-53" target="MyS0ghMgtrrdCx2Y_S8_-48" edge="1">
          <mxGeometry relative="1" as="geometry" />
        </mxCell>
        <mxCell id="MyS0ghMgtrrdCx2Y_S8_-86" style="rounded=0;orthogonalLoop=1;jettySize=auto;html=1;exitX=0;exitY=1;exitDx=0;exitDy=0;entryX=1;entryY=0.5;entryDx=0;entryDy=0;endArrow=none;endFill=0;" parent="1" source="MyS0ghMgtrrdCx2Y_S8_-80" target="MyS0ghMgtrrdCx2Y_S8_-26" edge="1">
          <mxGeometry relative="1" as="geometry" />
        </mxCell>
        <mxCell id="MyS0ghMgtrrdCx2Y_S8_-80" value="precio" style="ellipse;whiteSpace=wrap;html=1;strokeWidth=1;fillColor=#ffe6cc;strokeColor=#d79b00;" parent="1" vertex="1">
          <mxGeometry x="710" y="480" width="90" height="60" as="geometry" />
        </mxCell>
        <mxCell id="MyS0ghMgtrrdCx2Y_S8_-81" value="cantidad" style="ellipse;whiteSpace=wrap;html=1;strokeWidth=1;fillColor=#ffe6cc;strokeColor=#d79b00;" parent="1" vertex="1">
          <mxGeometry x="710" y="550" width="90" height="60" as="geometry" />
        </mxCell>
        <mxCell id="MyS0ghMgtrrdCx2Y_S8_-84" style="rounded=0;orthogonalLoop=1;jettySize=auto;html=1;exitX=0;exitY=0;exitDx=0;exitDy=0;entryX=1;entryY=0.5;entryDx=0;entryDy=0;endArrow=none;endFill=0;" parent="1" source="MyS0ghMgtrrdCx2Y_S8_-82" target="MyS0ghMgtrrdCx2Y_S8_-26" edge="1">
          <mxGeometry relative="1" as="geometry" />
        </mxCell>
        <mxCell id="MyS0ghMgtrrdCx2Y_S8_-82" value="iva" style="ellipse;whiteSpace=wrap;html=1;strokeWidth=1;fillColor=#ffe6cc;strokeColor=#d79b00;" parent="1" vertex="1">
          <mxGeometry x="710" y="620" width="90" height="60" as="geometry" />
        </mxCell>
        <mxCell id="MyS0ghMgtrrdCx2Y_S8_-87" value="(0:1)" style="text;html=1;strokeColor=none;fillColor=none;align=center;verticalAlign=middle;whiteSpace=wrap;rounded=0;" parent="1" vertex="1">
          <mxGeometry x="270" y="595" width="60" height="30" as="geometry" />
        </mxCell>
        <mxCell id="MyS0ghMgtrrdCx2Y_S8_-88" value="(1:1)" style="text;html=1;strokeColor=none;fillColor=none;align=center;verticalAlign=middle;whiteSpace=wrap;rounded=0;" parent="1" vertex="1">
          <mxGeometry x="410" y="595" width="60" height="30" as="geometry" />
        </mxCell>
        <mxCell id="MyS0ghMgtrrdCx2Y_S8_-90" value="1:1" style="text;html=1;strokeColor=none;fillColor=none;align=center;verticalAlign=middle;whiteSpace=wrap;rounded=0;" parent="1" vertex="1">
          <mxGeometry x="340" y="665" width="60" height="30" as="geometry" />
        </mxCell>
        <mxCell id="MyS0ghMgtrrdCx2Y_S8_-91" value="(0:N)" style="text;html=1;strokeColor=none;fillColor=none;align=center;verticalAlign=middle;whiteSpace=wrap;rounded=0;" parent="1" vertex="1">
          <mxGeometry x="410" y="490" width="60" height="30" as="geometry" />
        </mxCell>
        <mxCell id="MyS0ghMgtrrdCx2Y_S8_-92" value="(1:1)" style="text;html=1;strokeColor=none;fillColor=none;align=center;verticalAlign=middle;whiteSpace=wrap;rounded=0;" parent="1" vertex="1">
          <mxGeometry x="270" y="490" width="60" height="30" as="geometry" />
        </mxCell>
        <mxCell id="MyS0ghMgtrrdCx2Y_S8_-93" value="1:N" style="text;html=1;strokeColor=none;fillColor=none;align=center;verticalAlign=middle;whiteSpace=wrap;rounded=0;" parent="1" vertex="1">
          <mxGeometry x="340" y="450" width="60" height="30" as="geometry" />
        </mxCell>
        <mxCell id="MyS0ghMgtrrdCx2Y_S8_-95" value="(0:N)" style="text;html=1;strokeColor=none;fillColor=none;align=center;verticalAlign=middle;whiteSpace=wrap;rounded=0;" parent="1" vertex="1">
          <mxGeometry x="270" y="820" width="60" height="30" as="geometry" />
        </mxCell>
        <mxCell id="MyS0ghMgtrrdCx2Y_S8_-96" value="(1:1)" style="text;html=1;strokeColor=none;fillColor=none;align=center;verticalAlign=middle;whiteSpace=wrap;rounded=0;" parent="1" vertex="1">
          <mxGeometry x="480" y="820" width="60" height="30" as="geometry" />
        </mxCell>
        <mxCell id="MyS0ghMgtrrdCx2Y_S8_-97" value="descripción" style="ellipse;whiteSpace=wrap;html=1;strokeWidth=1;fillColor=#ffe6cc;strokeColor=#d79b00;" parent="1" vertex="1">
          <mxGeometry x="220" y="870" width="90" height="60" as="geometry" />
        </mxCell>
        <mxCell id="MyS0ghMgtrrdCx2Y_S8_-99" style="rounded=0;orthogonalLoop=1;jettySize=auto;html=1;exitX=0.5;exitY=0;exitDx=0;exitDy=0;entryX=0.5;entryY=1;entryDx=0;entryDy=0;entryPerimeter=0;endArrow=none;endFill=0;" parent="1" source="MyS0ghMgtrrdCx2Y_S8_-97" target="MyS0ghMgtrrdCx2Y_S8_-48" edge="1">
          <mxGeometry relative="1" as="geometry" />
        </mxCell>
        <mxCell id="MyS0ghMgtrrdCx2Y_S8_-100" value="1:N" style="text;html=1;strokeColor=none;fillColor=none;align=center;verticalAlign=middle;whiteSpace=wrap;rounded=0;" parent="1" vertex="1">
          <mxGeometry x="380" y="750" width="60" height="30" as="geometry" />
        </mxCell>
        <mxCell id="MyS0ghMgtrrdCx2Y_S8_-102" style="edgeStyle=orthogonalEdgeStyle;rounded=0;orthogonalLoop=1;jettySize=auto;html=1;exitX=1;exitY=0.5;exitDx=0;exitDy=0;entryX=0;entryY=0.5;entryDx=0;entryDy=0;" parent="1" source="MyS0ghMgtrrdCx2Y_S8_-103" target="MyS0ghMgtrrdCx2Y_S8_-122" edge="1">
          <mxGeometry relative="1" as="geometry" />
        </mxCell>
        <mxCell id="MyS0ghMgtrrdCx2Y_S8_-103" value="Cliente" style="rounded=0;whiteSpace=wrap;html=1;fillColor=#97D077;" parent="1" vertex="1">
          <mxGeometry x="976" y="172.5" width="120" height="60" as="geometry" />
        </mxCell>
        <mxCell id="MyS0ghMgtrrdCx2Y_S8_-104" style="rounded=0;orthogonalLoop=1;jettySize=auto;html=1;exitX=1;exitY=0.5;exitDx=0;exitDy=0;entryX=0;entryY=0.5;entryDx=0;entryDy=0;endArrow=none;endFill=0;strokeColor=default;" parent="1" source="MyS0ghMgtrrdCx2Y_S8_-105" target="MyS0ghMgtrrdCx2Y_S8_-103" edge="1">
          <mxGeometry relative="1" as="geometry" />
        </mxCell>
        <mxCell id="MyS0ghMgtrrdCx2Y_S8_-105" value="ID" style="ellipse;whiteSpace=wrap;html=1;strokeWidth=2;fillColor=#FFCE9F;" parent="1" vertex="1">
          <mxGeometry x="856" y="172.5" width="90" height="60" as="geometry" />
        </mxCell>
        <mxCell id="MyS0ghMgtrrdCx2Y_S8_-106" style="rounded=0;orthogonalLoop=1;jettySize=auto;html=1;exitX=1;exitY=0;exitDx=0;exitDy=0;entryX=0;entryY=0.5;entryDx=0;entryDy=0;endArrow=none;endFill=0;" parent="1" source="MyS0ghMgtrrdCx2Y_S8_-107" target="MyS0ghMgtrrdCx2Y_S8_-103" edge="1">
          <mxGeometry relative="1" as="geometry" />
        </mxCell>
        <mxCell id="MyS0ghMgtrrdCx2Y_S8_-107" value="apellido" style="ellipse;whiteSpace=wrap;html=1;strokeWidth=1;fillColor=#ffe6cc;strokeColor=#d79b00;" parent="1" vertex="1">
          <mxGeometry x="856" y="242.5" width="90" height="60" as="geometry" />
        </mxCell>
        <mxCell id="MyS0ghMgtrrdCx2Y_S8_-108" style="rounded=0;orthogonalLoop=1;jettySize=auto;html=1;exitX=1;exitY=1;exitDx=0;exitDy=0;entryX=0;entryY=0.5;entryDx=0;entryDy=0;endArrow=none;endFill=0;" parent="1" source="MyS0ghMgtrrdCx2Y_S8_-109" target="MyS0ghMgtrrdCx2Y_S8_-103" edge="1">
          <mxGeometry relative="1" as="geometry" />
        </mxCell>
        <mxCell id="MyS0ghMgtrrdCx2Y_S8_-109" value="nombre" style="ellipse;whiteSpace=wrap;html=1;strokeWidth=1;fillColor=#ffe6cc;strokeColor=#d79b00;" parent="1" vertex="1">
          <mxGeometry x="856" y="102.5" width="90" height="60" as="geometry" />
        </mxCell>
        <mxCell id="MyS0ghMgtrrdCx2Y_S8_-110" style="rounded=0;orthogonalLoop=1;jettySize=auto;html=1;exitX=0.5;exitY=1;exitDx=0;exitDy=0;entryX=0.5;entryY=0;entryDx=0;entryDy=0;endArrow=none;endFill=0;" parent="1" source="MyS0ghMgtrrdCx2Y_S8_-111" target="MyS0ghMgtrrdCx2Y_S8_-103" edge="1">
          <mxGeometry relative="1" as="geometry" />
        </mxCell>
        <mxCell id="MyS0ghMgtrrdCx2Y_S8_-111" value="NIF" style="ellipse;whiteSpace=wrap;html=1;strokeWidth=1;fillColor=#ffe6cc;strokeColor=#d79b00;" parent="1" vertex="1">
          <mxGeometry x="991" y="92.5" width="90" height="60" as="geometry" />
        </mxCell>
        <mxCell id="MyS0ghMgtrrdCx2Y_S8_-112" value="Factura" style="rounded=0;whiteSpace=wrap;html=1;fillColor=#97D077;" parent="1" vertex="1">
          <mxGeometry x="976" y="277.5" width="120" height="60" as="geometry" />
        </mxCell>
        <mxCell id="MyS0ghMgtrrdCx2Y_S8_-113" style="edgeStyle=orthogonalEdgeStyle;rounded=0;orthogonalLoop=1;jettySize=auto;html=1;exitX=0.5;exitY=1;exitDx=0;exitDy=0;entryX=0.5;entryY=0;entryDx=0;entryDy=0;" parent="1" source="MyS0ghMgtrrdCx2Y_S8_-115" target="MyS0ghMgtrrdCx2Y_S8_-129" edge="1">
          <mxGeometry relative="1" as="geometry" />
        </mxCell>
        <mxCell id="MyS0ghMgtrrdCx2Y_S8_-114" style="edgeStyle=orthogonalEdgeStyle;rounded=0;orthogonalLoop=1;jettySize=auto;html=1;exitX=0.5;exitY=0;exitDx=0;exitDy=0;entryX=0.5;entryY=1;entryDx=0;entryDy=0;" parent="1" source="MyS0ghMgtrrdCx2Y_S8_-115" target="MyS0ghMgtrrdCx2Y_S8_-127" edge="1">
          <mxGeometry relative="1" as="geometry">
            <Array as="points">
              <mxPoint x="1426" y="372.5" />
              <mxPoint x="1466" y="372.5" />
            </Array>
          </mxGeometry>
        </mxCell>
        <mxCell id="MyS0ghMgtrrdCx2Y_S8_-115" value="Producto" style="rounded=0;whiteSpace=wrap;html=1;fillColor=#97D077;" parent="1" vertex="1">
          <mxGeometry x="1366" y="472.5" width="120" height="60" as="geometry" />
        </mxCell>
        <mxCell id="MyS0ghMgtrrdCx2Y_S8_-116" style="edgeStyle=orthogonalEdgeStyle;rounded=0;orthogonalLoop=1;jettySize=auto;html=1;exitX=0;exitY=0.5;exitDx=0;exitDy=0;entryX=1;entryY=0.5;entryDx=0;entryDy=0;" parent="1" source="MyS0ghMgtrrdCx2Y_S8_-117" target="MyS0ghMgtrrdCx2Y_S8_-131" edge="1">
          <mxGeometry relative="1" as="geometry" />
        </mxCell>
        <mxCell id="MyS0ghMgtrrdCx2Y_S8_-117" value="Categorias" style="rounded=0;whiteSpace=wrap;html=1;fillColor=#97D077;" parent="1" vertex="1">
          <mxGeometry x="1211" y="672.5" width="120" height="60" as="geometry" />
        </mxCell>
        <mxCell id="MyS0ghMgtrrdCx2Y_S8_-118" value="Tipos de IVA" style="rounded=0;whiteSpace=wrap;html=1;fillColor=#97D077;" parent="1" vertex="1">
          <mxGeometry x="891" y="672.5" width="120" height="60" as="geometry" />
        </mxCell>
        <mxCell id="MyS0ghMgtrrdCx2Y_S8_-119" style="edgeStyle=orthogonalEdgeStyle;rounded=0;orthogonalLoop=1;jettySize=auto;html=1;exitX=0.5;exitY=1;exitDx=0;exitDy=0;entryX=1;entryY=0.5;entryDx=0;entryDy=0;" parent="1" source="MyS0ghMgtrrdCx2Y_S8_-120" target="MyS0ghMgtrrdCx2Y_S8_-124" edge="1">
          <mxGeometry relative="1" as="geometry" />
        </mxCell>
        <mxCell id="MyS0ghMgtrrdCx2Y_S8_-120" value="Pedido" style="rounded=0;whiteSpace=wrap;html=1;fillColor=#97D077;" parent="1" vertex="1">
          <mxGeometry x="1296" y="172.5" width="120" height="60" as="geometry" />
        </mxCell>
        <mxCell id="MyS0ghMgtrrdCx2Y_S8_-121" style="edgeStyle=orthogonalEdgeStyle;rounded=0;orthogonalLoop=1;jettySize=auto;html=1;exitX=1;exitY=0.5;exitDx=0;exitDy=0;entryX=0;entryY=0.5;entryDx=0;entryDy=0;" parent="1" source="MyS0ghMgtrrdCx2Y_S8_-122" target="MyS0ghMgtrrdCx2Y_S8_-120" edge="1">
          <mxGeometry relative="1" as="geometry" />
        </mxCell>
        <mxCell id="MyS0ghMgtrrdCx2Y_S8_-122" value="hace" style="rhombus;whiteSpace=wrap;html=1;" parent="1" vertex="1">
          <mxGeometry x="1156" y="162.5" width="80" height="80" as="geometry" />
        </mxCell>
        <mxCell id="MyS0ghMgtrrdCx2Y_S8_-123" style="edgeStyle=orthogonalEdgeStyle;rounded=0;orthogonalLoop=1;jettySize=auto;html=1;exitX=0;exitY=0.5;exitDx=0;exitDy=0;entryX=1;entryY=0.5;entryDx=0;entryDy=0;" parent="1" source="MyS0ghMgtrrdCx2Y_S8_-124" target="MyS0ghMgtrrdCx2Y_S8_-112" edge="1">
          <mxGeometry relative="1" as="geometry" />
        </mxCell>
        <mxCell id="MyS0ghMgtrrdCx2Y_S8_-124" value="tiene" style="rhombus;whiteSpace=wrap;html=1;" parent="1" vertex="1">
          <mxGeometry x="1156" y="267.5" width="80" height="80" as="geometry" />
        </mxCell>
        <mxCell id="MyS0ghMgtrrdCx2Y_S8_-125" style="edgeStyle=orthogonalEdgeStyle;rounded=0;orthogonalLoop=1;jettySize=auto;html=1;exitX=0.5;exitY=0;exitDx=0;exitDy=0;entryX=1;entryY=0.5;entryDx=0;entryDy=0;" parent="1" source="MyS0ghMgtrrdCx2Y_S8_-127" target="MyS0ghMgtrrdCx2Y_S8_-120" edge="1">
          <mxGeometry relative="1" as="geometry" />
        </mxCell>
        <mxCell id="MyS0ghMgtrrdCx2Y_S8_-126" style="rounded=0;orthogonalLoop=1;jettySize=auto;html=1;exitX=1;exitY=0.5;exitDx=0;exitDy=0;entryX=0;entryY=0.5;entryDx=0;entryDy=0;endArrow=none;endFill=0;" parent="1" source="MyS0ghMgtrrdCx2Y_S8_-127" target="MyS0ghMgtrrdCx2Y_S8_-170" edge="1">
          <mxGeometry relative="1" as="geometry" />
        </mxCell>
        <mxCell id="MyS0ghMgtrrdCx2Y_S8_-127" value="compone" style="rhombus;whiteSpace=wrap;html=1;" parent="1" vertex="1">
          <mxGeometry x="1426" y="222.5" width="80" height="80" as="geometry" />
        </mxCell>
        <mxCell id="MyS0ghMgtrrdCx2Y_S8_-128" style="edgeStyle=orthogonalEdgeStyle;rounded=0;orthogonalLoop=1;jettySize=auto;html=1;exitX=0;exitY=0.5;exitDx=0;exitDy=0;entryX=1;entryY=0.5;entryDx=0;entryDy=0;" parent="1" source="MyS0ghMgtrrdCx2Y_S8_-129" target="MyS0ghMgtrrdCx2Y_S8_-117" edge="1">
          <mxGeometry relative="1" as="geometry" />
        </mxCell>
        <mxCell id="MyS0ghMgtrrdCx2Y_S8_-129" value="E" style="rhombus;whiteSpace=wrap;html=1;" parent="1" vertex="1">
          <mxGeometry x="1386" y="662.5" width="80" height="80" as="geometry" />
        </mxCell>
        <mxCell id="MyS0ghMgtrrdCx2Y_S8_-130" style="edgeStyle=orthogonalEdgeStyle;rounded=0;orthogonalLoop=1;jettySize=auto;html=1;exitX=0;exitY=0.5;exitDx=0;exitDy=0;entryX=1;entryY=0.5;entryDx=0;entryDy=0;" parent="1" source="MyS0ghMgtrrdCx2Y_S8_-131" target="MyS0ghMgtrrdCx2Y_S8_-118" edge="1">
          <mxGeometry relative="1" as="geometry" />
        </mxCell>
        <mxCell id="MyS0ghMgtrrdCx2Y_S8_-131" value="E" style="rhombus;whiteSpace=wrap;html=1;" parent="1" vertex="1">
          <mxGeometry x="1071" y="662.5" width="80" height="80" as="geometry" />
        </mxCell>
        <mxCell id="MyS0ghMgtrrdCx2Y_S8_-132" style="rounded=0;orthogonalLoop=1;jettySize=auto;html=1;exitX=0.5;exitY=0;exitDx=0;exitDy=0;entryX=0.5;entryY=1;entryDx=0;entryDy=0;endArrow=none;endFill=0;" parent="1" source="MyS0ghMgtrrdCx2Y_S8_-133" target="MyS0ghMgtrrdCx2Y_S8_-117" edge="1">
          <mxGeometry relative="1" as="geometry" />
        </mxCell>
        <mxCell id="MyS0ghMgtrrdCx2Y_S8_-133" value="ID" style="ellipse;whiteSpace=wrap;html=1;strokeWidth=2;fillColor=#FFCE9F;" parent="1" vertex="1">
          <mxGeometry x="1176" y="752.5" width="90" height="60" as="geometry" />
        </mxCell>
        <mxCell id="MyS0ghMgtrrdCx2Y_S8_-134" style="rounded=0;orthogonalLoop=1;jettySize=auto;html=1;exitX=0;exitY=0.5;exitDx=0;exitDy=0;entryX=1;entryY=0.5;entryDx=0;entryDy=0;endArrow=none;endFill=0;" parent="1" source="MyS0ghMgtrrdCx2Y_S8_-135" target="MyS0ghMgtrrdCx2Y_S8_-115" edge="1">
          <mxGeometry relative="1" as="geometry" />
        </mxCell>
        <mxCell id="MyS0ghMgtrrdCx2Y_S8_-135" value="stock" style="ellipse;whiteSpace=wrap;html=1;strokeWidth=1;fillColor=#ffe6cc;strokeColor=#d79b00;" parent="1" vertex="1">
          <mxGeometry x="1536" y="510" width="90" height="60" as="geometry" />
        </mxCell>
        <mxCell id="MyS0ghMgtrrdCx2Y_S8_-136" style="rounded=0;orthogonalLoop=1;jettySize=auto;html=1;exitX=0.5;exitY=0;exitDx=0;exitDy=0;entryX=0.5;entryY=1;entryDx=0;entryDy=0;endArrow=none;endFill=0;" parent="1" source="MyS0ghMgtrrdCx2Y_S8_-137" target="MyS0ghMgtrrdCx2Y_S8_-117" edge="1">
          <mxGeometry relative="1" as="geometry" />
        </mxCell>
        <mxCell id="MyS0ghMgtrrdCx2Y_S8_-137" value="nombre" style="ellipse;whiteSpace=wrap;html=1;strokeWidth=1;fillColor=#ffe6cc;strokeColor=#d79b00;" parent="1" vertex="1">
          <mxGeometry x="1276" y="752.5" width="90" height="60" as="geometry" />
        </mxCell>
        <mxCell id="MyS0ghMgtrrdCx2Y_S8_-138" style="rounded=0;orthogonalLoop=1;jettySize=auto;html=1;exitX=0.5;exitY=1;exitDx=0;exitDy=0;entryX=0.25;entryY=0;entryDx=0;entryDy=0;endArrow=none;endFill=0;" parent="1" source="MyS0ghMgtrrdCx2Y_S8_-139" target="MyS0ghMgtrrdCx2Y_S8_-115" edge="1">
          <mxGeometry relative="1" as="geometry" />
        </mxCell>
        <mxCell id="MyS0ghMgtrrdCx2Y_S8_-139" value="CODIGO" style="ellipse;whiteSpace=wrap;html=1;strokeWidth=3;fillColor=#FFCE9F;dashed=1;dashPattern=1 1;" parent="1" vertex="1">
          <mxGeometry x="1326" y="392.5" width="90" height="60" as="geometry" />
        </mxCell>
        <mxCell id="MyS0ghMgtrrdCx2Y_S8_-140" style="rounded=0;orthogonalLoop=1;jettySize=auto;html=1;exitX=0.5;exitY=0;exitDx=0;exitDy=0;entryX=0.25;entryY=1;entryDx=0;entryDy=0;endArrow=none;endFill=0;" parent="1" source="MyS0ghMgtrrdCx2Y_S8_-141" target="MyS0ghMgtrrdCx2Y_S8_-115" edge="1">
          <mxGeometry relative="1" as="geometry" />
        </mxCell>
        <mxCell id="MyS0ghMgtrrdCx2Y_S8_-141" value="precio actual" style="ellipse;whiteSpace=wrap;html=1;strokeWidth=1;fillColor=#ffe6cc;strokeColor=#d79b00;" parent="1" vertex="1">
          <mxGeometry x="1326" y="552.5" width="90" height="60" as="geometry" />
        </mxCell>
        <mxCell id="MyS0ghMgtrrdCx2Y_S8_-151" style="rounded=0;orthogonalLoop=1;jettySize=auto;html=1;exitX=0.5;exitY=1;exitDx=0;exitDy=0;entryX=0.5;entryY=0;entryDx=0;entryDy=0;endArrow=none;endFill=0;" parent="1" source="MyS0ghMgtrrdCx2Y_S8_-152" target="MyS0ghMgtrrdCx2Y_S8_-120" edge="1">
          <mxGeometry relative="1" as="geometry" />
        </mxCell>
        <mxCell id="MyS0ghMgtrrdCx2Y_S8_-152" value="ID" style="ellipse;whiteSpace=wrap;html=1;strokeWidth=2;fillColor=#FFCE9F;" parent="1" vertex="1">
          <mxGeometry x="1266" y="92.5" width="90" height="60" as="geometry" />
        </mxCell>
        <mxCell id="MyS0ghMgtrrdCx2Y_S8_-153" style="rounded=0;orthogonalLoop=1;jettySize=auto;html=1;exitX=0.5;exitY=1;exitDx=0;exitDy=0;entryX=0.5;entryY=0;entryDx=0;entryDy=0;endArrow=none;endFill=0;" parent="1" source="MyS0ghMgtrrdCx2Y_S8_-154" target="MyS0ghMgtrrdCx2Y_S8_-120" edge="1">
          <mxGeometry relative="1" as="geometry" />
        </mxCell>
        <mxCell id="MyS0ghMgtrrdCx2Y_S8_-154" value="gastos de envio" style="ellipse;whiteSpace=wrap;html=1;strokeWidth=1;fillColor=#ffe6cc;strokeColor=#d79b00;" parent="1" vertex="1">
          <mxGeometry x="1366" y="92.5" width="90" height="60" as="geometry" />
        </mxCell>
        <mxCell id="MyS0ghMgtrrdCx2Y_S8_-155" style="rounded=0;orthogonalLoop=1;jettySize=auto;html=1;exitX=0.5;exitY=0;exitDx=0;exitDy=0;entryX=0.5;entryY=1;entryDx=0;entryDy=0;endArrow=none;endFill=0;" parent="1" source="MyS0ghMgtrrdCx2Y_S8_-156" target="MyS0ghMgtrrdCx2Y_S8_-118" edge="1">
          <mxGeometry relative="1" as="geometry" />
        </mxCell>
        <mxCell id="MyS0ghMgtrrdCx2Y_S8_-156" value="ID" style="ellipse;whiteSpace=wrap;html=1;strokeWidth=2;fillColor=#FFCE9F;" parent="1" vertex="1">
          <mxGeometry x="856" y="752.5" width="90" height="60" as="geometry" />
        </mxCell>
        <mxCell id="MyS0ghMgtrrdCx2Y_S8_-157" style="rounded=0;orthogonalLoop=1;jettySize=auto;html=1;exitX=0.5;exitY=0;exitDx=0;exitDy=0;entryX=0.5;entryY=1;entryDx=0;entryDy=0;endArrow=none;endFill=0;" parent="1" source="MyS0ghMgtrrdCx2Y_S8_-158" target="MyS0ghMgtrrdCx2Y_S8_-118" edge="1">
          <mxGeometry relative="1" as="geometry" />
        </mxCell>
        <mxCell id="MyS0ghMgtrrdCx2Y_S8_-158" value="porcentaje" style="ellipse;whiteSpace=wrap;html=1;strokeWidth=1;fillColor=#ffe6cc;strokeColor=#d79b00;" parent="1" vertex="1">
          <mxGeometry x="956" y="752.5" width="90" height="60" as="geometry" />
        </mxCell>
        <mxCell id="MyS0ghMgtrrdCx2Y_S8_-159" style="rounded=0;orthogonalLoop=1;jettySize=auto;html=1;exitX=0;exitY=0.5;exitDx=0;exitDy=0;entryX=1;entryY=0.5;entryDx=0;entryDy=0;endArrow=none;endFill=0;" parent="1" source="MyS0ghMgtrrdCx2Y_S8_-160" target="MyS0ghMgtrrdCx2Y_S8_-115" edge="1">
          <mxGeometry relative="1" as="geometry" />
        </mxCell>
        <mxCell id="MyS0ghMgtrrdCx2Y_S8_-160" value="nombre" style="ellipse;whiteSpace=wrap;html=1;strokeWidth=1;fillColor=#ffe6cc;strokeColor=#d79b00;" parent="1" vertex="1">
          <mxGeometry x="1536" y="435" width="90" height="60" as="geometry" />
        </mxCell>
        <mxCell id="MyS0ghMgtrrdCx2Y_S8_-161" style="rounded=0;orthogonalLoop=1;jettySize=auto;html=1;exitX=0.5;exitY=0;exitDx=0;exitDy=0;entryX=0.75;entryY=1;entryDx=0;entryDy=0;endArrow=none;endFill=0;" parent="1" source="MyS0ghMgtrrdCx2Y_S8_-162" target="MyS0ghMgtrrdCx2Y_S8_-115" edge="1">
          <mxGeometry relative="1" as="geometry" />
        </mxCell>
        <mxCell id="MyS0ghMgtrrdCx2Y_S8_-162" value="cantidad maxima por pedido" style="ellipse;whiteSpace=wrap;html=1;strokeWidth=1;fillColor=#ffe6cc;strokeColor=#d79b00;" parent="1" vertex="1">
          <mxGeometry x="1436" y="552.5" width="90" height="60" as="geometry" />
        </mxCell>
        <mxCell id="MyS0ghMgtrrdCx2Y_S8_-163" style="rounded=0;orthogonalLoop=1;jettySize=auto;html=1;exitX=0.5;exitY=1;exitDx=0;exitDy=0;entryX=0.75;entryY=0;entryDx=0;entryDy=0;endArrow=none;endFill=0;" parent="1" source="MyS0ghMgtrrdCx2Y_S8_-164" target="MyS0ghMgtrrdCx2Y_S8_-115" edge="1">
          <mxGeometry relative="1" as="geometry" />
        </mxCell>
        <mxCell id="MyS0ghMgtrrdCx2Y_S8_-164" value="ID" style="ellipse;whiteSpace=wrap;html=1;strokeWidth=2;fillColor=#FFCE9F;" parent="1" vertex="1">
          <mxGeometry x="1436" y="392.5" width="90" height="60" as="geometry" />
        </mxCell>
        <mxCell id="MyS0ghMgtrrdCx2Y_S8_-168" style="rounded=0;orthogonalLoop=1;jettySize=auto;html=1;exitX=0;exitY=1;exitDx=0;exitDy=0;entryX=1;entryY=0.5;entryDx=0;entryDy=0;endArrow=none;endFill=0;" parent="1" source="MyS0ghMgtrrdCx2Y_S8_-169" target="MyS0ghMgtrrdCx2Y_S8_-127" edge="1">
          <mxGeometry relative="1" as="geometry" />
        </mxCell>
        <mxCell id="MyS0ghMgtrrdCx2Y_S8_-169" value="precio" style="ellipse;whiteSpace=wrap;html=1;strokeWidth=1;fillColor=#ffe6cc;strokeColor=#d79b00;" parent="1" vertex="1">
          <mxGeometry x="1536" y="162.5" width="90" height="60" as="geometry" />
        </mxCell>
        <mxCell id="MyS0ghMgtrrdCx2Y_S8_-170" value="cantidad" style="ellipse;whiteSpace=wrap;html=1;strokeWidth=1;fillColor=#ffe6cc;strokeColor=#d79b00;" parent="1" vertex="1">
          <mxGeometry x="1536" y="232.5" width="90" height="60" as="geometry" />
        </mxCell>
        <mxCell id="MyS0ghMgtrrdCx2Y_S8_-171" style="rounded=0;orthogonalLoop=1;jettySize=auto;html=1;exitX=0;exitY=0;exitDx=0;exitDy=0;entryX=1;entryY=0.5;entryDx=0;entryDy=0;endArrow=none;endFill=0;" parent="1" source="MyS0ghMgtrrdCx2Y_S8_-172" target="MyS0ghMgtrrdCx2Y_S8_-127" edge="1">
          <mxGeometry relative="1" as="geometry" />
        </mxCell>
        <mxCell id="MyS0ghMgtrrdCx2Y_S8_-172" value="iva" style="ellipse;whiteSpace=wrap;html=1;strokeWidth=1;fillColor=#ffe6cc;strokeColor=#d79b00;" parent="1" vertex="1">
          <mxGeometry x="1536" y="302.5" width="90" height="60" as="geometry" />
        </mxCell>
        <mxCell id="MyS0ghMgtrrdCx2Y_S8_-173" value="(0:1)" style="text;html=1;strokeColor=none;fillColor=none;align=center;verticalAlign=middle;whiteSpace=wrap;rounded=0;" parent="1" vertex="1">
          <mxGeometry x="1096" y="277.5" width="60" height="30" as="geometry" />
        </mxCell>
        <mxCell id="MyS0ghMgtrrdCx2Y_S8_-174" value="(1:1)" style="text;html=1;strokeColor=none;fillColor=none;align=center;verticalAlign=middle;whiteSpace=wrap;rounded=0;" parent="1" vertex="1">
          <mxGeometry x="1236" y="277.5" width="60" height="30" as="geometry" />
        </mxCell>
        <mxCell id="MyS0ghMgtrrdCx2Y_S8_-175" value="1:1" style="text;html=1;strokeColor=none;fillColor=none;align=center;verticalAlign=middle;whiteSpace=wrap;rounded=0;" parent="1" vertex="1">
          <mxGeometry x="1166" y="347.5" width="60" height="30" as="geometry" />
        </mxCell>
        <mxCell id="MyS0ghMgtrrdCx2Y_S8_-176" value="(0:N)" style="text;html=1;strokeColor=none;fillColor=none;align=center;verticalAlign=middle;whiteSpace=wrap;rounded=0;" parent="1" vertex="1">
          <mxGeometry x="1236" y="172.5" width="60" height="30" as="geometry" />
        </mxCell>
        <mxCell id="MyS0ghMgtrrdCx2Y_S8_-177" value="(1:1)" style="text;html=1;strokeColor=none;fillColor=none;align=center;verticalAlign=middle;whiteSpace=wrap;rounded=0;" parent="1" vertex="1">
          <mxGeometry x="1096" y="172.5" width="60" height="30" as="geometry" />
        </mxCell>
        <mxCell id="MyS0ghMgtrrdCx2Y_S8_-178" value="1:N" style="text;html=1;strokeColor=none;fillColor=none;align=center;verticalAlign=middle;whiteSpace=wrap;rounded=0;" parent="1" vertex="1">
          <mxGeometry x="1166" y="132.5" width="60" height="30" as="geometry" />
        </mxCell>
        <mxCell id="MyS0ghMgtrrdCx2Y_S8_-185" value="Propuesta de Julio:" style="text;html=1;strokeColor=none;fillColor=none;align=left;verticalAlign=middle;whiteSpace=wrap;rounded=0;fontFamily=Verdana;fontSize=13;" parent="1" vertex="1">
          <mxGeometry x="861" y="40" width="760" height="30" as="geometry" />
        </mxCell>
        <mxCell id="MyS0ghMgtrrdCx2Y_S8_-186" value="Propuesta de Diego:" style="text;html=1;strokeColor=none;fillColor=none;align=left;verticalAlign=middle;whiteSpace=wrap;rounded=0;fontFamily=Verdana;fontSize=13;" parent="1" vertex="1">
          <mxGeometry x="34" y="375" width="760" height="30" as="geometry" />
        </mxCell>
        <mxCell id="MyS0ghMgtrrdCx2Y_S8_-188" style="edgeStyle=orthogonalEdgeStyle;rounded=0;orthogonalLoop=1;jettySize=auto;html=1;exitX=1;exitY=0.5;exitDx=0;exitDy=0;entryX=0;entryY=0.5;entryDx=0;entryDy=0;endArrow=none;endFill=0;" parent="1" source="MyS0ghMgtrrdCx2Y_S8_-187" target="MyS0ghMgtrrdCx2Y_S8_-115" edge="1">
          <mxGeometry relative="1" as="geometry" />
        </mxCell>
        <mxCell id="MyS0ghMgtrrdCx2Y_S8_-187" value="stock especial" style="ellipse;whiteSpace=wrap;html=1;strokeWidth=1;fillColor=#ffe6cc;strokeColor=#d79b00;" parent="1" vertex="1">
          <mxGeometry x="1241" y="472.5" width="90" height="60" as="geometry" />
        </mxCell>
        <mxCell id="EqQ4BPFUlPjn3l3qLwB_-1" value="(0:N)" style="text;html=1;strokeColor=none;fillColor=none;align=center;verticalAlign=middle;whiteSpace=wrap;rounded=0;" vertex="1" parent="1">
          <mxGeometry x="590" y="490" width="60" height="30" as="geometry" />
        </mxCell>
        <mxCell id="EqQ4BPFUlPjn3l3qLwB_-2" value="(1:N)" style="text;html=1;strokeColor=none;fillColor=none;align=center;verticalAlign=middle;whiteSpace=wrap;rounded=0;" vertex="1" parent="1">
          <mxGeometry x="580" y="655" width="60" height="30" as="geometry" />
        </mxCell>
        <mxCell id="EqQ4BPFUlPjn3l3qLwB_-3" value="N:M" style="text;html=1;strokeColor=none;fillColor=none;align=center;verticalAlign=middle;whiteSpace=wrap;rounded=0;" vertex="1" parent="1">
          <mxGeometry x="550" y="565" width="60" height="30" as="geometry" />
        </mxCell>
        <mxCell id="EqQ4BPFUlPjn3l3qLwB_-4" value="(1:1)" style="text;html=1;strokeColor=none;fillColor=none;align=center;verticalAlign=middle;whiteSpace=wrap;rounded=0;" vertex="1" parent="1">
          <mxGeometry x="505" y="990" width="60" height="30" as="geometry" />
        </mxCell>
        <mxCell id="EqQ4BPFUlPjn3l3qLwB_-5" value="(1:N)" style="text;html=1;strokeColor=none;fillColor=none;align=center;verticalAlign=middle;whiteSpace=wrap;rounded=0;" vertex="1" parent="1">
          <mxGeometry x="540" y="940" width="60" height="30" as="geometry" />
        </mxCell>
        <mxCell id="EqQ4BPFUlPjn3l3qLwB_-6" value="N:M" style="text;html=1;strokeColor=none;fillColor=none;align=center;verticalAlign=middle;whiteSpace=wrap;rounded=0;" vertex="1" parent="1">
          <mxGeometry x="630" y="1005" width="60" height="30" as="geometry" />
        </mxCell>
        <mxCell id="EqQ4BPFUlPjn3l3qLwB_-7" value="(0:N)" style="text;html=1;strokeColor=none;fillColor=none;align=center;verticalAlign=middle;whiteSpace=wrap;rounded=0;" vertex="1" parent="1">
          <mxGeometry x="325" y="990" width="60" height="30" as="geometry" />
        </mxCell>
        <mxCell id="EqQ4BPFUlPjn3l3qLwB_-8" value="(1:1)" style="text;html=1;strokeColor=none;fillColor=none;align=center;verticalAlign=middle;whiteSpace=wrap;rounded=0;" vertex="1" parent="1">
          <mxGeometry x="185" y="990" width="60" height="30" as="geometry" />
        </mxCell>
        <mxCell id="EqQ4BPFUlPjn3l3qLwB_-9" value="1:N" style="text;html=1;strokeColor=none;fillColor=none;align=center;verticalAlign=middle;whiteSpace=wrap;rounded=0;" vertex="1" parent="1">
          <mxGeometry x="255" y="950" width="60" height="30" as="geometry" />
        </mxCell>
        <mxCell id="EqQ4BPFUlPjn3l3qLwB_-19" value="(0:N)" style="text;html=1;strokeColor=none;fillColor=none;align=center;verticalAlign=middle;whiteSpace=wrap;rounded=0;" vertex="1" parent="1">
          <mxGeometry x="1416" y="172.5" width="60" height="30" as="geometry" />
        </mxCell>
        <mxCell id="EqQ4BPFUlPjn3l3qLwB_-20" value="(1:N)" style="text;html=1;strokeColor=none;fillColor=none;align=center;verticalAlign=middle;whiteSpace=wrap;rounded=0;" vertex="1" parent="1">
          <mxGeometry x="1406" y="337.5" width="60" height="30" as="geometry" />
        </mxCell>
        <mxCell id="EqQ4BPFUlPjn3l3qLwB_-21" value="N:M" style="text;html=1;strokeColor=none;fillColor=none;align=center;verticalAlign=middle;whiteSpace=wrap;rounded=0;" vertex="1" parent="1">
          <mxGeometry x="1376" y="247.5" width="60" height="30" as="geometry" />
        </mxCell>
        <mxCell id="EqQ4BPFUlPjn3l3qLwB_-22" value="(1:1)" style="text;html=1;strokeColor=none;fillColor=none;align=center;verticalAlign=middle;whiteSpace=wrap;rounded=0;" vertex="1" parent="1">
          <mxGeometry x="1331" y="672.5" width="60" height="30" as="geometry" />
        </mxCell>
        <mxCell id="EqQ4BPFUlPjn3l3qLwB_-23" value="(1:N)" style="text;html=1;strokeColor=none;fillColor=none;align=center;verticalAlign=middle;whiteSpace=wrap;rounded=0;" vertex="1" parent="1">
          <mxGeometry x="1366" y="622.5" width="60" height="30" as="geometry" />
        </mxCell>
        <mxCell id="EqQ4BPFUlPjn3l3qLwB_-24" value="N:M" style="text;html=1;strokeColor=none;fillColor=none;align=center;verticalAlign=middle;whiteSpace=wrap;rounded=0;" vertex="1" parent="1">
          <mxGeometry x="1456" y="687.5" width="60" height="30" as="geometry" />
        </mxCell>
        <mxCell id="EqQ4BPFUlPjn3l3qLwB_-25" value="(0:N)" style="text;html=1;strokeColor=none;fillColor=none;align=center;verticalAlign=middle;whiteSpace=wrap;rounded=0;" vertex="1" parent="1">
          <mxGeometry x="1151" y="672.5" width="60" height="30" as="geometry" />
        </mxCell>
        <mxCell id="EqQ4BPFUlPjn3l3qLwB_-26" value="(1:1)" style="text;html=1;strokeColor=none;fillColor=none;align=center;verticalAlign=middle;whiteSpace=wrap;rounded=0;" vertex="1" parent="1">
          <mxGeometry x="1011" y="672.5" width="60" height="30" as="geometry" />
        </mxCell>
        <mxCell id="EqQ4BPFUlPjn3l3qLwB_-27" value="1:N" style="text;html=1;strokeColor=none;fillColor=none;align=center;verticalAlign=middle;whiteSpace=wrap;rounded=0;" vertex="1" parent="1">
          <mxGeometry x="1081" y="632.5" width="60" height="30" as="geometry" />
        </mxCell>
      </root>
    </mxGraphModel>
  </diagram>
</mxfile>
